#!OML:ASF H:\Pregnant\Project 1\Capture day 1\Session 1\femalepreg.ASF
:FULLY-SPECIFIED
:DEGREES
996
root 2.07771 1.18671 14.8632 -85.3435 -14.8088 3.15571
lowerback -4.93258 2.57151 -1.52457
upperback 1.55326 3.75127 -5.22449
thorax 4.64032 1.89032 -4.24376
lowerneck -22.753 20.3768 23.5729
upperneck 28.2898 23.482 -3.83602
head 17.2588 11.7223 0.443304
rclavicle -2.3059e-014 3.90612e-014
rhumerus -24.201 10.6977 -71.467
rradius 82.0276
rwrist -0.542049
rhand 15.778 -19.6888
rfingers 7.12502
rthumb 40.5835 -44.7361
lclavicle -2.3059e-014 3.90612e-014
lhumerus -3.24771 9.5741 48.5648
lradius 49.2977
lwrist 29.7122
lhand -6.92656 16.6294
lfingers 7.12502
lthumb 18.9414 45.7271
rfemur -70.6483 -13.5432 18.8012
rtibia 135.293
rfoot 33.3066 20.0671
rtoes 9.2687
lfemur -68.3554 10.9339 0.588005
ltibia 132.483
lfoot 27.248 -6.61791
ltoes 9.94424
997
root 2.07555 1.18852 14.8642 -85.1862 -14.9126 2.96366
lowerback -5.06229 2.56389 -1.35434
upperback 1.5379 3.73759 -5.28138
thorax 4.71228 1.8895 -4.39605
lowerneck -22.7481 20.4601 23.5529
upperneck 28.2354 23.5824 -3.74415
head 17.2234 11.7705 0.508147
rclavicle 1.11319e-014 1.93815e-014
rhumerus -23.6883 10.8713 -71.7363
rradius 82.7551
rwrist -1.02886
rhand 15.5016 -19.5681
rfingers 7.12502
rthumb 40.3236 -44.6957
lclavicle 1.11319e-014 1.93815e-014
lhumerus -2.11095 8.40734 47.8795
lradius 49.038
lwrist 29.8384
lhand -5.79593 16.8439
lfingers 7.12502
lthumb 20.0285 45.8317
rfemur -70.7204 -13.4546 19.0551
rtibia 135.313
rfoot 32.1926 20.8016
rtoes 5.50042
lfemur -68.8379 11.1729 0.0147582
ltibia 132.506
lfoot 27.7706 -5.60158
ltoes 11.4534
998
root 2.0742 1.19048 14.8651 -85.0404 -14.9982 2.77091
lowerback -5.18523 2.56135 -1.19899
upperback 1.52807 3.73164 -5.34362
thorax 4.78616 1.89234 -4.54534
lowerneck -22.7591 20.5455 23.5096
upperneck 28.2087 23.6778 -3.6071
head 17.1926 11.821 0.594621
rclavicle -2.62396e-014 3.29983e-014
rhumerus -23.1514 11.0609 -72.0205
rradius 83.4423
rwrist -1.50613
rhand 15.147 -19.4113
rfingers 7.12502
rthumb 39.99 -44.6403
lclavicle -2.62396e-014 3.29983e-014
lhumerus -0.966371 7.19997 47.1063
lradius 48.7674
lwrist 29.9867
lhand -4.64363 17.086
lfingers 7.12502
lthumb 21.1358 45.9539
rfemur -70.7765 -13.3338 19.2845
rtibia 135.324
rfoot 31.1347 21.4493
rtoes 1.95659
lfemur -69.2454 11.347 -0.571512
ltibia 132.476
lfoot 28.1922 -4.66455
ltoes 12.9891
999
root 2.07372 1.1924 14.8664 -84.9162 -15.0446 2.5903
lowerback -5.2947 2.55668 -1.09477
upperback 1.52397 3.72567 -5.40465
thorax 4.85499 1.8937 -4.66522
lowerneck -22.7761 20.6366 23.4516
upperneck 28.2242 23.7822 -3.43778
head 17.1771 11.8783 0.700865
rclavicle 4.21423e-014 8.54774e-015
rhumerus -22.5737 11.3103 -72.2979
rradius 84.089
rwrist -1.97959
rhand 14.7568 -19.2689
rfingers 7.12502
rthumb 39.6227 -44.6076
lclavicle 4.21423e-014 8.54774e-015
lhumerus 0.158112 5.9884 46.2492
lradius 48.4903
lwrist 30.158
lhand -3.46354 17.3477
lfingers 7.12502
lthumb 22.269 46.0846
rfemur -70.8127 -13.188 19.4543
rtibia 135.335
rfoot 30.1534 22.0261
rtoes -1.27872
lfemur -69.5473 11.4593 -1.19493
ltibia 132.381
lfoot 28.4825 -4.05568
ltoes 13.9431
1000
root 2.07396 1.19431 14.8679 -84.8096 -15.0432 2.42672
lowerback -5.39726 2.54173 -1.06992
upperback 1.5225 3.71047 -5.45446
thorax 4.91592 1.88778 -4.72968
lowerneck -22.7802 20.7363 23.4011
upperneck 28.284 23.9128 -3.27138
head 17.1858 11.9466 0.814487
rclavicle -4.05521e-014 7.95139e-016
rhumerus -21.9449 11.6596 -72.5478
rradius 84.7042
rwrist -2.46892
rhand 14.3642 -19.183
rfingers 7.12502
rthumb 39.2529 -44.6301
lclavicle -4.05521e-014 7.95139e-016
lhumerus 1.18791 4.73908 45.2805
lradius 48.2317
lwrist 30.4217
lhand -2.28338 17.5971
lfingers 7.12502
lthumb 23.4016 46.1942
rfemur -70.8377 -13.0127 19.5509
rtibia 135.349
rfoot 29.2701 22.5352
rtoes -4.14978
lfemur -69.7376 11.5186 -1.87087
ltibia 132.212
lfoot 28.649 -3.84249
ltoes 14.3175
1001
root 2.07476 1.19614 14.87 -84.7333 -14.9998 2.28116
lowerback -5.4832 2.51076 -1.1313
upperback 1.52701 3.67818 -5.4778
thorax 4.96475 1.87016 -4.71973
lowerneck -22.752 20.8427 23.3484
upperneck 28.3765 24.0793 -3.11845
head 17.2107 12.0282 0.932481
rclavicle 6.2816e-014 -1.98785e-016
rhumerus -21.255 12.1344 -72.7459
rradius 85.2866
rwrist -3.00388
rhand 14.0069 -19.14
rfingers 7.12502
rthumb 38.916 -44.684
lclavicle 6.2816e-014 -1.98785e-016
lhumerus 2.11131 3.4837 44.2224
lradius 47.9903
lwrist 30.768
lhand -1.10735 17.8228
lfingers 7.12502
lthumb 24.5293 46.2717
rfemur -70.8328 -12.8059 19.5782
rtibia 135.365
rfoot 28.4558 23.0093
rtoes -6.61763
lfemur -69.8034 11.5413 -2.59536
ltibia 131.969
lfoot 28.7004 -4.05913
ltoes 14.1449
